<svg width="29" height="29" viewBox="0 0 29 29" fill="none" xmlns="http://www.w3.org/2000/svg">
<g id="Icons/Social/discord">
<path id="Vector" d="M22.801 6.95544C21.2297 6.2361 19.571 5.72577 17.8672 5.4375C17.634 5.8543 17.4231 6.28313 17.2352 6.7222C15.4203 6.44871 13.5746 6.44871 11.7597 6.7222C11.5717 6.28318 11.3607 5.85435 11.1277 5.4375C9.42275 5.72821 7.76294 6.23974 6.19015 6.9592C3.06774 11.5789 2.22131 16.0838 2.64452 20.5247C4.47308 21.8758 6.51976 22.9032 8.69559 23.5625C9.18553 22.9036 9.61906 22.2045 9.99158 21.4727C9.28402 21.2085 8.60111 20.8824 7.95073 20.4984C8.1219 20.3743 8.28931 20.2464 8.45107 20.1222C10.3435 21.0122 12.409 21.4736 14.5003 21.4736C16.5915 21.4736 18.657 21.0122 20.5494 20.1222C20.7131 20.2558 20.8805 20.3837 21.0498 20.4984C20.3982 20.8831 19.714 21.2097 19.0052 21.4746C19.3772 22.206 19.8108 22.9045 20.3012 23.5625C22.4789 22.9059 24.5271 21.8789 26.356 20.5266C26.8526 15.3765 25.5077 10.913 22.801 6.95544ZM10.5277 17.7936C9.34829 17.7936 8.37395 16.7233 8.37395 15.4066C8.37395 14.0899 9.31443 13.0103 10.5239 13.0103C11.7334 13.0103 12.7002 14.0899 12.6795 15.4066C12.6588 16.7233 11.7296 17.7936 10.5277 17.7936ZM18.4729 17.7936C17.2916 17.7936 16.321 16.7233 16.321 15.4066C16.321 14.0899 17.2615 13.0103 18.4729 13.0103C19.6842 13.0103 20.6435 14.0899 20.6228 15.4066C20.6021 16.7233 19.6748 17.7936 18.4729 17.7936Z" fill="#EEEEEE"/>
</g>
</svg>
