<svg width="26" height="26" viewBox="0 0 26 26" fill="none" xmlns="http://www.w3.org/2000/svg">
<g id="ic:baseline-discord">
<path id="Vector" d="M21.0579 6.21372C19.6782 5.57056 18.1844 5.10374 16.6284 4.83403C16.6147 4.8336 16.6012 4.83616 16.5886 4.84153C16.5761 4.84691 16.5649 4.85497 16.5558 4.86515C16.369 5.20748 16.1512 5.65354 16.006 5.99587C14.3555 5.74691 12.6771 5.74691 11.0267 5.99587C10.8814 5.64317 10.6636 5.20748 10.4665 4.86515C10.4561 4.84441 10.425 4.83403 10.3939 4.83403C8.83784 5.10374 7.35442 5.57056 5.96436 6.21372C5.95399 6.21372 5.94361 6.22409 5.93324 6.23446C3.11163 10.4565 2.33361 14.5644 2.71743 18.6309C2.71743 18.6516 2.72781 18.6724 2.74855 18.6827C4.6158 20.0521 6.41042 20.8819 8.1843 21.4317C8.21542 21.4421 8.24654 21.4317 8.25692 21.411C8.67186 20.8404 9.04531 20.2388 9.36689 19.606C9.38764 19.5645 9.36689 19.523 9.32539 19.5126C8.7341 19.2844 8.17393 19.0147 7.62413 18.7035C7.58264 18.6827 7.58264 18.6205 7.61376 18.5894C7.72787 18.5064 7.84197 18.413 7.95608 18.33C7.97683 18.3093 8.00795 18.3093 8.0287 18.3197C11.5972 19.9483 15.4458 19.9483 18.9728 18.3197C18.9936 18.3093 19.0247 18.3093 19.0454 18.33C19.1595 18.4234 19.2736 18.5064 19.3878 18.5998C19.4292 18.6309 19.4292 18.6931 19.3774 18.7139C18.838 19.0354 18.2674 19.2948 17.6761 19.523C17.6346 19.5334 17.6242 19.5852 17.6346 19.6164C17.9666 20.2491 18.34 20.8508 18.7446 21.4214C18.7757 21.4317 18.8068 21.4421 18.838 21.4317C20.6222 20.8819 22.4168 20.0521 24.2841 18.6827C24.3048 18.6724 24.3152 18.6516 24.3152 18.6309C24.7716 13.9316 23.5579 9.85484 21.0994 6.23446C21.089 6.22409 21.0786 6.21372 21.0579 6.21372ZM9.90631 16.1516C8.83784 16.1516 7.94571 15.1661 7.94571 13.9524C7.94571 12.7387 8.81709 11.7532 9.90631 11.7532C11.0059 11.7532 11.8773 12.7491 11.8669 13.9524C11.8669 15.1661 10.9955 16.1516 9.90631 16.1516ZM17.1367 16.1516C16.0682 16.1516 15.1761 15.1661 15.1761 13.9524C15.1761 12.7387 16.0475 11.7532 17.1367 11.7532C18.2363 11.7532 19.1077 12.7491 19.0973 13.9524C19.0973 15.1661 18.2363 16.1516 17.1367 16.1516Z" fill="#53545F"/>
</g>
</svg>
