<svg width="26" height="26" viewBox="0 0 26 26" fill="none" xmlns="http://www.w3.org/2000/svg">
<g id="Instagram">
<path id="Vector" d="M8.09 2H16.91C20.27 2 23 4.73 23 8.09V16.91C23 18.5252 22.3584 20.0742 21.2163 21.2163C20.0742 22.3584 18.5252 23 16.91 23H8.09C4.73 23 2 20.27 2 16.91V8.09C2 6.47483 2.64162 4.92582 3.78372 3.78372C4.92582 2.64162 6.47483 2 8.09 2ZM7.88 4.1C6.87748 4.1 5.91602 4.49825 5.20714 5.20714C4.49825 5.91602 4.1 6.87748 4.1 7.88V17.12C4.1 19.2095 5.7905 20.9 7.88 20.9H17.12C18.1225 20.9 19.084 20.5018 19.7929 19.7929C20.5018 19.084 20.9 18.1225 20.9 17.12V7.88C20.9 5.7905 19.2095 4.1 17.12 4.1H7.88ZM18.0125 5.675C18.3606 5.675 18.6944 5.81328 18.9406 6.05942C19.1867 6.30556 19.325 6.6394 19.325 6.9875C19.325 7.3356 19.1867 7.66944 18.9406 7.91558C18.6944 8.16172 18.3606 8.3 18.0125 8.3C17.6644 8.3 17.3306 8.16172 17.0844 7.91558C16.8383 7.66944 16.7 7.3356 16.7 6.9875C16.7 6.6394 16.8383 6.30556 17.0844 6.05942C17.3306 5.81328 17.6644 5.675 18.0125 5.675ZM12.5 7.25C13.8924 7.25 15.2277 7.80312 16.2123 8.78769C17.1969 9.77225 17.75 11.1076 17.75 12.5C17.75 13.8924 17.1969 15.2277 16.2123 16.2123C15.2277 17.1969 13.8924 17.75 12.5 17.75C11.1076 17.75 9.77225 17.1969 8.78769 16.2123C7.80312 15.2277 7.25 13.8924 7.25 12.5C7.25 11.1076 7.80312 9.77225 8.78769 8.78769C9.77225 7.80312 11.1076 7.25 12.5 7.25ZM12.5 9.35C11.6646 9.35 10.8634 9.68187 10.2726 10.2726C9.68187 10.8634 9.35 11.6646 9.35 12.5C9.35 13.3354 9.68187 14.1366 10.2726 14.7274C10.8634 15.3181 11.6646 15.65 12.5 15.65C13.3354 15.65 14.1366 15.3181 14.7274 14.7274C15.3181 14.1366 15.65 13.3354 15.65 12.5C15.65 11.6646 15.3181 10.8634 14.7274 10.2726C14.1366 9.68187 13.3354 9.35 12.5 9.35Z" fill="#C6C6C7"/>
</g>
</svg>
