<svg width="24" height="23" viewBox="0 0 24 23" fill="none" xmlns="http://www.w3.org/2000/svg">
<g id="ri:instagram-fill">
<path id="Vector" d="M12.956 1.85173C13.6333 1.84913 14.3106 1.85594 14.9878 1.87215L15.1678 1.87864C15.3757 1.88607 15.5809 1.89535 15.8287 1.90649C16.8162 1.9529 17.4901 2.10883 18.0813 2.33808C18.6939 2.57384 19.21 2.89312 19.726 3.40918C20.1979 3.8729 20.5631 4.43382 20.7962 5.05295C21.0255 5.64419 21.1814 6.31897 21.2278 7.30653C21.2389 7.55342 21.2482 7.75947 21.2556 7.96738L21.2612 8.14744C21.2777 8.82425 21.2848 9.50126 21.2826 10.1783L21.2835 10.8707V12.0866C21.2858 12.7639 21.2787 13.4412 21.2621 14.1183L21.2566 14.2984C21.2491 14.5063 21.2399 14.7114 21.2287 14.9592C21.1823 15.9468 21.0245 16.6206 20.7962 17.2119C20.5638 17.8317 20.1985 18.393 19.726 18.8566C19.2619 19.3284 18.7007 19.6935 18.0813 19.9267C17.4901 20.156 16.8162 20.3119 15.8287 20.3583C15.5809 20.3695 15.3757 20.3787 15.1678 20.3862L14.9878 20.3917C14.3106 20.4082 13.6333 20.4154 12.956 20.4131L12.2636 20.414H11.0486C10.3713 20.4163 9.69402 20.4092 9.01691 20.3927L8.83684 20.3871C8.61651 20.3791 8.39622 20.3698 8.17599 20.3593C7.18843 20.3128 6.51458 20.1551 5.92242 19.9267C5.30304 19.6941 4.74202 19.3288 4.27864 18.8566C3.80625 18.3927 3.44072 17.8315 3.20755 17.2119C2.97829 16.6206 2.82236 15.9468 2.77595 14.9592C2.76561 14.739 2.75633 14.5187 2.74811 14.2984L2.74347 14.1183C2.72635 13.4412 2.71862 12.7639 2.72026 12.0866V10.1783C2.71767 9.50126 2.72448 8.82426 2.74068 8.14744L2.74718 7.96738C2.7546 7.75947 2.76389 7.55342 2.77502 7.30653C2.82143 6.31804 2.97736 5.64512 3.20662 5.05295C3.43993 4.43352 3.80618 3.87275 4.27957 3.41011C4.74263 2.93745 5.3033 2.57158 5.92242 2.33808C6.51458 2.10883 7.1875 1.9529 8.17599 1.90649L8.83684 1.87864L9.01691 1.874C9.69371 1.8569 10.3707 1.84917 11.0477 1.8508L12.956 1.85173ZM12.0019 6.49253C11.387 6.48384 10.7765 6.59744 10.2059 6.82673C9.63524 7.05603 9.11589 7.39645 8.67798 7.82821C8.24008 8.25996 7.89235 8.77445 7.655 9.34177C7.41766 9.90908 7.29544 10.5179 7.29544 11.1329C7.29544 11.7478 7.41766 12.3567 7.655 12.924C7.89235 13.4913 8.24008 14.0058 8.67798 14.4375C9.11589 14.8693 9.63524 15.2097 10.2059 15.439C10.7765 15.6683 11.387 15.7819 12.0019 15.7732C13.2327 15.7732 14.4131 15.2843 15.2834 14.414C16.1537 13.5436 16.6427 12.3632 16.6427 11.1324C16.6427 9.90159 16.1537 8.72118 15.2834 7.85086C14.4131 6.98054 13.2327 6.49253 12.0019 6.49253ZM12.0019 8.34885C12.3717 8.34204 12.7393 8.409 13.083 8.54582C13.4267 8.68264 13.7397 8.88658 14.0037 9.14572C14.2677 9.40487 14.4774 9.71402 14.6206 10.0551C14.7638 10.3962 14.8376 10.7625 14.8377 11.1324C14.8377 11.5023 14.7641 11.8686 14.621 12.2097C14.4779 12.5509 14.2683 12.8601 14.0044 13.1194C13.7404 13.3786 13.4275 13.5826 13.0839 13.7196C12.7402 13.8565 12.3727 13.9236 12.0028 13.9169C11.2643 13.9169 10.5561 13.6235 10.0339 13.1013C9.51168 12.5791 9.21832 11.8709 9.21832 11.1324C9.21832 10.3939 9.51168 9.68567 10.0339 9.16348C10.5561 8.64129 11.2643 8.34793 12.0028 8.34793L12.0019 8.34885ZM16.8747 5.10029C16.5753 5.11228 16.2921 5.23966 16.0845 5.45575C15.8769 5.67185 15.7609 5.95989 15.7609 6.25956C15.7609 6.55924 15.8769 6.84728 16.0845 7.06338C16.2921 7.27947 16.5753 7.40685 16.8747 7.41884C17.1824 7.41884 17.4775 7.2966 17.6951 7.07902C17.9127 6.86144 18.0349 6.56634 18.0349 6.25864C18.0349 5.95093 17.9127 5.65583 17.6951 5.43825C17.4775 5.22067 17.1824 5.09843 16.8747 5.09843V5.10029Z" fill="#53545F"/>
</g>
</svg>
