<svg width="22" height="21" viewBox="0 0 22 21" fill="none" xmlns="http://www.w3.org/2000/svg">
<g id="ri:linkedin-fill">
<path id="Vector" d="M6.23449 4.36128C6.23426 4.82465 6.04996 5.26894 5.72215 5.59643C5.39433 5.92392 4.94985 6.10777 4.48649 6.10753C4.02312 6.1073 3.57882 5.92301 3.25134 5.5952C2.92385 5.26738 2.74 4.8229 2.74023 4.35953C2.74047 3.89617 2.92476 3.45187 3.25257 3.12439C3.58039 2.7969 4.02487 2.61305 4.48823 2.61328C4.9516 2.61351 5.3959 2.79781 5.72338 3.12562C6.05087 3.45343 6.23472 3.89791 6.23449 4.36128ZM6.2869 7.40128H2.79265V18.3383H6.2869V7.40128ZM11.8078 7.40128H8.33104V18.3383H11.7729V12.599C11.7729 9.40174 15.9398 9.10473 15.9398 12.599V18.3383H19.3903V11.4109C19.3903 6.02105 13.223 6.22197 11.7729 8.86887L11.8078 7.40128Z" fill="#53545F"/>
</g>
</svg>
