<svg width="26" height="26" viewBox="0 0 26 26" fill="none" xmlns="http://www.w3.org/2000/svg">
<g id="Frame">
<g id="Group">
<path id="Vector" d="M24.3694 24.375L24.375 24.3741V16.0305C24.375 11.9488 23.4963 8.80453 18.7245 8.80453C16.4305 8.80453 14.8911 10.0634 14.2626 11.2568H14.1963V9.1856H9.67188V24.3741H14.383V16.8533C14.383 14.8731 14.7584 12.9583 17.2107 12.9583C19.6269 12.9583 19.6629 15.2181 19.6629 16.9803V24.375H24.3694ZM2.00038 9.18654H6.71722V24.375H2.00038V9.18654ZM4.3569 1.625C2.84876 1.625 1.625 2.84876 1.625 4.3569C1.625 5.86504 2.84876 7.11439 4.3569 7.11439C5.86504 7.11439 7.0888 5.86504 7.0888 4.3569C7.0883 3.63251 6.80031 2.93793 6.28809 2.42571C5.77587 1.91349 5.08129 1.6255 4.3569 1.625Z" fill="#C6C6C7"/>
</g>
</g>
</svg>
