<svg width="20" height="20" viewBox="0 0 20 20" fill="none" xmlns="http://www.w3.org/2000/svg">
<g id="icon-park-outline:telegram">
<path id="Vector" d="M17.1342 3.29841C17.1342 3.29841 18.7251 2.67805 18.592 4.18453C18.5482 4.8049 18.1506 6.97639 17.841 9.32477L16.7804 16.2819C16.7804 16.2819 16.692 17.3011 15.8964 17.4784C15.1011 17.6553 13.9079 16.858 13.6868 16.6807C13.5099 16.5476 10.3724 14.5535 9.26765 13.5789C8.95808 13.3127 8.60429 12.7812 9.31188 12.1608L13.9517 7.72942C14.482 7.19792 15.0123 5.95718 12.8027 7.46367L6.61543 11.6732C6.61543 11.6732 5.90825 12.1166 4.58276 11.7178L1.70983 10.8313C1.70983 10.8313 0.649268 10.1667 2.46123 9.50208C6.88078 7.41945 12.3167 5.29259 17.1334 3.29841H17.1342Z" fill="#53545F"/>
</g>
</svg>
