<svg width="26" height="26" viewBox="0 0 26 26" fill="none" xmlns="http://www.w3.org/2000/svg">
<g id="Icons/Social/twitter">
<path id="white_background" d="M20.9519 8.92046C20.9641 9.09676 20.9641 9.27306 20.9641 9.45099C20.9641 14.8725 16.8369 21.1251 9.29002 21.1251V21.1218C7.06066 21.1251 4.87761 20.4865 3.00085 19.2824C3.32502 19.3214 3.65081 19.3409 3.97742 19.3417C5.82493 19.3434 7.61963 18.7235 9.0731 17.582C7.3174 17.5487 5.7778 16.4039 5.23996 14.7327C5.85499 14.8513 6.4887 14.827 7.09235 14.662C5.17822 14.2753 3.80112 12.5935 3.80112 10.6404C3.80112 10.6225 3.80112 10.6055 3.80112 10.5884C4.37146 10.9061 5.01004 11.0824 5.66325 11.1019C3.86043 9.89702 3.30471 7.49867 4.39339 5.62354C6.47651 8.18682 9.55 9.74509 12.8494 9.91002C12.5187 8.48498 12.9704 6.9917 14.0363 5.98995C15.6889 4.43655 18.2879 4.51617 19.8413 6.16788C20.7602 5.9867 21.6409 5.64954 22.4468 5.17182C22.1405 6.12157 21.4995 6.92833 20.6432 7.44099C21.4564 7.34512 22.251 7.12738 22.9993 6.79509C22.4484 7.62054 21.7546 8.33956 20.9519 8.92046Z" fill="#C6C6C7"/>
</g>
</svg>
