<svg width="23" height="24" viewBox="0 0 23 24" fill="none" xmlns="http://www.w3.org/2000/svg">
<path fill-rule="evenodd" clip-rule="evenodd" d="M10.8652 9.66874C9.51401 9.70193 8.16464 10.1194 7.31859 11.3157C6.14661 12.9729 3.84996 16.7026 1.98927 19.7243C1.28084 20.8748 0.635607 21.9227 0.139708 22.7144C-0.0158407 22.9627 0.0903897 23.2887 0.373551 23.3642C2.28822 23.8743 5.76771 23.6756 6.78467 22.1219L12.9036 12.7739C15.0932 16.0691 17.7401 19.9597 19.3579 22.3195C19.5273 22.5666 19.8783 22.5933 20.0747 22.3671C21.5518 20.666 23.5761 17.4496 22.1843 15.3688L12.0642 0.238821C11.8958 -0.0130306 11.5393 -0.0418265 11.3476 0.192892C9.94116 1.91583 8.17215 5.38514 10.0918 8.45397C10.3169 8.81379 10.5771 9.22217 10.8652 9.66874Z" fill="#67DAB1"/>
</svg>
