<svg width="207" height="24" viewBox="0 0 207 24" fill="none" xmlns="http://www.w3.org/2000/svg">
<g id="Group 148">
<g id="Group 145">
<g id="Group">
<path id="Vector" d="M29.4248 3.81055H48.7018V7.23227H41.2317V22.2819H36.9546V7.23227H29.4248V3.81055Z" fill="white"/>
<path id="Vector_2" d="M51.031 9.34961V11.707C51.8367 10.1354 53.1298 9.34961 54.9103 9.34961H57.6059V12.6818H54.9899C53.3586 12.6818 52.3042 13.0896 51.8268 13.9053C51.3493 14.7209 51.1106 16.3621 51.1106 18.829V22.2805H46.8633V9.34961H51.031Z" fill="white"/>
<path id="Vector_3" d="M59.585 10.9614C60.9975 9.69813 62.9272 9.06152 65.3642 9.06152C66.4782 9.06152 67.5127 9.21072 68.4775 9.50913C69.4424 9.80754 70.3177 10.2551 71.1035 10.8619C71.8893 11.4687 72.4563 12.2346 72.7945 13.1596C73.1426 14.0847 73.3117 15.0396 73.3117 16.0144C73.3117 16.3426 73.2918 16.6808 73.252 17.0489H61.5346C61.7037 17.7551 62.1513 18.332 62.8675 18.7697C63.5837 19.2073 64.4391 19.4262 65.4338 19.4262C65.9908 19.4262 66.4882 19.3864 66.9258 19.3068C67.3635 19.2272 67.7017 19.1377 67.9305 19.0382C68.1592 18.9288 68.3482 18.8293 68.4875 18.7199C68.6267 18.6105 68.7262 18.521 68.7561 18.4514L68.8157 18.332H73.063C73.0432 18.4514 72.9934 18.6006 72.9238 18.7896C72.8442 18.9785 72.6353 19.3167 72.2872 19.7942C71.9391 20.2716 71.5113 20.6994 71.004 21.0773C70.4968 21.4553 69.7507 21.7935 68.766 22.1019C67.7813 22.4102 66.6573 22.5594 65.394 22.5594C63.0366 22.5594 61.1268 21.9427 59.6447 20.7193C58.1726 19.4958 57.4365 17.8645 57.4365 15.8353C57.4365 13.8062 58.1428 12.2147 59.5652 10.9514L59.585 10.9614ZM69.2932 14.3532C69.2534 13.6868 68.8754 13.1596 68.1394 12.7717C67.4132 12.3937 66.4882 12.1948 65.3841 12.1948C64.3695 12.1948 63.524 12.3937 62.8377 12.8015C62.1613 13.1994 61.7336 13.7166 61.5545 14.3532H69.2832H69.2932Z" fill="white"/>
<path id="Vector_4" d="M78.5736 9.35078V11.5391C79.6478 9.9476 81.309 9.122 83.5769 9.07227H83.8056C85.1087 9.07227 86.2327 9.23143 87.1776 9.54973C88.1226 9.86803 88.8586 10.3355 89.3659 10.9721C89.8732 11.6087 90.2313 12.295 90.4402 13.051C90.6491 13.807 90.7585 14.6724 90.7585 15.6471V22.2817H86.5112V15.6471C86.5112 13.3693 85.3772 12.2155 83.1193 12.1956H82.9999C81.5775 12.1956 80.5232 12.5935 79.8269 13.3992C79.1306 14.2049 78.7825 15.2294 78.7825 16.4727V22.2718H74.5352V9.34084H78.5835L78.5736 9.35078Z" fill="white"/>
<path id="Vector_5" d="M113.05 3.81055V7.23227H100.407V11.7979H111.577V15.2196H100.407V22.2819H96.1299V3.81055H113.05Z" fill="white"/>
<path id="Vector_6" d="M114.022 5.81911C114.022 5.13278 114.261 4.53595 114.739 4.04856C115.216 3.56116 115.793 3.3125 116.459 3.3125C117.126 3.3125 117.733 3.56116 118.21 4.04856C118.688 4.53595 118.926 5.12283 118.926 5.81911C118.926 6.51539 118.688 7.06247 118.21 7.53992C117.733 8.01737 117.146 8.25609 116.459 8.25609C115.773 8.25609 115.216 8.01737 114.739 7.53992C114.261 7.06247 114.022 6.48555 114.022 5.81911ZM118.588 9.35024V22.2812H114.361V9.35024H118.588Z" fill="white"/>
<path id="Vector_7" d="M124.688 9.35078V11.5391C125.762 9.9476 127.423 9.122 129.691 9.07227H129.92C131.223 9.07227 132.347 9.23143 133.292 9.54973C134.237 9.86803 134.963 10.3355 135.47 10.9721C135.978 11.6087 136.336 12.295 136.545 13.051C136.754 13.807 136.863 14.6724 136.863 15.6471V22.2817H132.616V15.6471C132.616 13.3693 131.482 12.2155 129.224 12.1956H129.104C127.682 12.1956 126.628 12.5935 125.931 13.3992C125.235 14.2049 124.887 15.2294 124.887 16.4727V22.2718H120.64V9.34084H124.688V9.35078Z" fill="white"/>
<path id="Vector_8" d="M137.896 18.6312C137.956 15.8162 141.567 14.2645 148.728 13.9761H149.126L149.554 13.9462V13.807C149.554 12.6034 148.39 11.9966 146.073 11.9966C145.516 11.9966 145.028 12.0364 144.59 12.126C144.163 12.2155 143.835 12.3149 143.626 12.4443C143.417 12.5736 143.248 12.6929 143.118 12.8222C142.989 12.9515 142.909 13.061 142.87 13.1505L142.84 13.2698H138.612L138.811 12.5238C139.438 10.9522 140.86 9.90781 143.059 9.39057C143.954 9.18169 144.968 9.07227 146.073 9.07227C148.5 9.07227 150.38 9.49998 151.702 10.3654C153.025 11.2307 153.682 12.3846 153.682 13.8368L153.712 17.2884V17.925C153.712 18.293 153.771 18.5417 153.881 18.671C153.99 18.8003 154.189 18.8699 154.458 18.8699H154.836V22.2917H154.458C153.075 22.2917 152.041 22.1623 151.344 21.8938C150.648 21.6252 150.161 21.1478 149.892 20.4614C148.569 21.8838 146.451 22.5901 143.546 22.5901C141.557 22.5901 140.104 22.222 139.209 21.4959C138.304 20.7698 137.856 19.8348 137.856 18.7108V18.6511L137.896 18.6312ZM142.352 18.6312C142.352 19.2877 143.009 19.6259 144.332 19.6657H144.59C145.705 19.6657 146.799 19.417 147.893 18.9197C148.987 18.4223 149.544 17.736 149.564 16.8507V16.3633C148.738 16.3832 147.982 16.423 147.296 16.4926C146.61 16.5623 145.844 16.6717 145.008 16.8209C144.173 16.9701 143.526 17.1989 143.059 17.4973C142.591 17.7957 142.352 18.1538 142.352 18.5715V18.6312Z" fill="white"/>
<path id="Vector_9" d="M160.337 9.35078V11.5391C161.412 9.9476 163.073 9.122 165.341 9.07227H165.569C166.873 9.07227 167.997 9.23143 168.941 9.54973C169.886 9.86803 170.613 10.3355 171.12 10.9721C171.627 11.6087 171.985 12.295 172.194 13.051C172.403 13.807 172.512 14.6724 172.512 15.6471V22.2817H168.265V15.6471C168.265 13.3693 167.131 12.2155 164.873 12.1956H164.754C163.331 12.1956 162.277 12.5935 161.581 13.3992C160.885 14.2049 160.536 15.2294 160.536 16.4727V22.2718H156.289V9.34084H160.337V9.35078Z" fill="white"/>
<path id="Vector_10" d="M175.853 10.8718C177.325 9.66827 179.344 9.06152 181.91 9.06152C182.925 9.06152 183.85 9.15105 184.695 9.33009C185.541 9.50914 186.227 9.7379 186.764 10.0164C187.302 10.2949 187.769 10.6033 188.177 10.9514C188.585 11.2996 188.883 11.6378 189.092 11.9859C189.301 12.334 189.47 12.6424 189.599 12.9209C189.719 13.1994 189.798 13.4182 189.818 13.5973L189.878 13.8858H185.601C185.601 13.8858 185.591 13.7863 185.561 13.7166C185.531 13.6371 185.432 13.5078 185.272 13.3287C185.113 13.1497 184.904 12.9806 184.666 12.8413C184.427 12.7021 184.059 12.5728 183.571 12.4534C183.084 12.334 182.537 12.2843 181.92 12.2843C180.657 12.2843 179.682 12.5827 178.986 13.1895C178.29 13.7962 177.952 14.6318 177.952 15.706C177.952 16.7803 178.31 17.6755 179.016 18.3519C179.722 19.0183 180.687 19.3565 181.92 19.3565C182.537 19.3565 183.084 19.2869 183.571 19.1377C184.059 18.9885 184.427 18.8194 184.666 18.6105C184.904 18.4016 185.103 18.1927 185.253 17.9739C185.402 17.7551 185.501 17.5959 185.541 17.4567L185.601 17.2279H189.828C189.828 17.3075 189.818 17.4069 189.788 17.5263C189.758 17.6457 189.679 17.9043 189.54 18.2723C189.41 18.6503 189.241 18.9984 189.032 19.3366C188.823 19.6748 188.525 20.0429 188.117 20.4606C187.709 20.8784 187.232 21.2265 186.705 21.5249C186.178 21.8233 185.501 22.072 184.666 22.271C183.83 22.4699 182.915 22.5694 181.92 22.5694C179.334 22.5694 177.305 21.9527 175.843 20.7193C174.381 19.4858 173.645 17.8148 173.645 15.706C173.645 13.7166 174.381 12.1053 175.853 10.8818V10.8718Z" fill="white"/>
<path id="Vector_11" d="M192.593 10.9614C194.005 9.69813 195.935 9.06152 198.362 9.06152C199.476 9.06152 200.511 9.21072 201.476 9.50913C202.44 9.80754 203.316 10.2551 204.102 10.8619C204.887 11.4687 205.454 12.2346 205.793 13.1596C206.141 14.0847 206.31 15.0396 206.31 16.0144C206.31 16.3426 206.29 16.6808 206.25 17.0489H194.533C194.702 17.7551 195.149 18.332 195.866 18.7697C196.582 19.2073 197.437 19.4262 198.432 19.4262C198.989 19.4262 199.486 19.3864 199.924 19.3068C200.362 19.2272 200.7 19.1377 200.929 19.0382C201.157 18.9288 201.346 18.8293 201.486 18.7199C201.625 18.6105 201.724 18.521 201.754 18.4514L201.814 18.332H206.061C206.041 18.4514 205.991 18.6006 205.922 18.7896C205.842 18.9785 205.633 19.3167 205.285 19.7942C204.937 20.2716 204.509 20.6994 204.002 21.0773C203.495 21.4553 202.749 21.7935 201.764 22.1019C200.779 22.4102 199.655 22.5594 198.392 22.5594C196.035 22.5594 194.125 21.9427 192.643 20.7193C191.171 19.4958 190.435 17.8645 190.435 15.8353C190.435 13.8062 191.141 12.2147 192.563 10.9514L192.593 10.9614ZM202.301 14.3532C202.261 13.6868 201.883 13.1596 201.147 12.7717C200.421 12.3937 199.496 12.1948 198.392 12.1948C197.377 12.1948 196.532 12.3937 195.846 12.8015C195.169 13.1994 194.742 13.7166 194.563 14.3532H202.291H202.301Z" fill="white"/>
</g>
</g>
<path id="Union" fill-rule="evenodd" clip-rule="evenodd" d="M10.8655 9.80204C9.51439 9.83523 8.16502 10.2527 7.31897 11.449C6.14699 13.1062 3.85033 16.8359 1.98965 19.8576C1.28122 21.0081 0.635985 22.056 0.140086 22.8477C-0.0154631 23.096 0.0907674 23.422 0.373929 23.4975C2.2886 24.0076 5.76809 23.8089 6.78504 22.2552L12.904 12.9072C15.0936 16.2024 17.7405 20.093 19.3583 22.4528C19.5277 22.6999 19.8787 22.7266 20.0751 22.5004C21.5521 20.7993 23.5765 17.5829 22.1847 15.5021L12.0646 0.372126C11.8962 0.120274 11.5396 0.0914781 11.348 0.326197C9.94154 2.04914 8.17253 5.51844 10.0922 8.58728C10.3173 8.9471 10.5775 9.35547 10.8655 9.80204Z" fill="#67DAB1"/>
</g>
</svg>
