<svg width="20" height="18" viewBox="0 0 20 18" fill="none" xmlns="http://www.w3.org/2000/svg">
<g clip-path="url(#clip0_50_6386)">
<path d="M6.2755 10.0335C6.15823 10.0335 6.04576 9.98963 5.96284 9.91149C5.87992 9.83335 5.83334 9.72737 5.83334 9.61686C5.83334 9.50636 5.87992 9.40037 5.96284 9.32223C6.04576 9.24409 6.15823 9.2002 6.2755 9.2002H18.7323C18.7892 9.20037 18.8455 9.21127 18.8979 9.23224C18.9502 9.25322 18.9976 9.28384 19.0373 9.32232C19.1201 9.40045 19.1667 9.5064 19.1667 9.61686C19.1667 9.72733 19.1201 9.83327 19.0373 9.9114C18.9976 9.94988 18.9502 9.98051 18.8979 10.0015C18.8455 10.0225 18.7892 10.0333 18.7323 10.0335H6.2755Z" fill="white"/>
<path d="M15.4102 13.3672C15.3278 13.3677 15.2473 13.3427 15.1799 13.2955C15.1112 13.2539 15.0581 13.191 15.0288 13.1164C15.0002 13.0378 15.0002 12.9516 15.0288 12.8729C15.0424 12.7942 15.0801 12.7217 15.1367 12.6652L18.1737 9.61359L15.1151 6.56203C15.0419 6.48438 15.0007 6.38204 15 6.2755C15.0053 6.16856 15.0487 6.067 15.1223 5.98896C15.1984 5.91212 15.3019 5.86834 15.4102 5.86719C15.5172 5.86791 15.6201 5.90884 15.6981 5.9818L19.0445 9.3199C19.1227 9.39781 19.1667 9.50345 19.1667 9.61359C19.1667 9.72374 19.1227 9.82938 19.0445 9.90729L15.6981 13.2454C15.6591 13.2851 15.6126 13.3167 15.5613 13.3385C15.5134 13.358 15.462 13.3677 15.4102 13.3672Z" fill="white"/>
<path d="M3.0622 17.5342C2.76921 17.5353 2.47887 17.4875 2.20802 17.3936C1.93717 17.2998 1.6912 17.1617 1.48438 16.9874C1.06803 16.635 0.834072 16.1588 0.833343 15.6624V4.40596C0.832626 4.16093 0.889799 3.91822 1.00155 3.69188C1.1133 3.46554 1.27742 3.26006 1.48438 3.08735C1.90327 2.73593 2.47012 2.5372 3.0622 2.53418H11.1045C11.6938 2.5392 12.2572 2.73802 12.6739 3.08797C13.0906 3.43791 13.3274 3.91109 13.3333 4.40596V5.91111C13.3297 6.00752 13.2833 6.09931 13.2031 6.16839C13.1198 6.23831 13.0069 6.27759 12.8891 6.27759C12.7713 6.27759 12.6584 6.23831 12.5751 6.16839C12.534 6.13496 12.5014 6.09498 12.479 6.05079C12.4567 6.00661 12.445 5.95911 12.4449 5.91111V4.40596C12.4459 4.2579 12.4119 4.11114 12.3449 3.97419C12.2779 3.83723 12.1792 3.71281 12.0545 3.60811C11.9299 3.50341 11.7817 3.42053 11.6186 3.36427C11.4555 3.308 11.2808 3.27947 11.1045 3.28032H3.0622C2.70415 3.27985 2.36025 3.39768 2.10479 3.60836C1.9801 3.71301 1.88137 3.83739 1.81432 3.9743C1.74727 4.11121 1.71323 4.25793 1.71416 4.40596V15.6624C1.71211 15.8115 1.74558 15.9595 1.81259 16.0976C1.87961 16.2358 1.97883 16.3613 2.10442 16.4667C2.23001 16.5722 2.37943 16.6555 2.54391 16.7118C2.70839 16.7681 2.8846 16.7962 3.0622 16.7945H11.1045C11.4596 16.7919 11.7998 16.6744 12.0542 16.4664C12.1791 16.3606 12.278 16.2351 12.345 16.0971C12.412 15.9591 12.446 15.8114 12.4449 15.6624V13.4111C12.4449 13.3122 12.4917 13.2173 12.575 13.1473C12.6583 13.0773 12.7713 13.038 12.8891 13.038C13.0069 13.038 13.1199 13.0773 13.2032 13.1473C13.2865 13.2173 13.3333 13.3122 13.3333 13.4111V15.6624C13.3297 16.1596 13.0931 16.6356 12.6746 16.9874C12.2686 17.3307 11.7188 17.5269 11.1428 17.5342H3.0622Z" fill="white"/>
</g>
<defs>
<clipPath id="clip0_50_6386">
<rect width="20" height="16.6667" fill="white" transform="translate(0 0.867188)"/>
</clipPath>
</defs>
</svg>
