<svg width="36" height="37" viewBox="0 0 36 37" fill="none" xmlns="http://www.w3.org/2000/svg">
<g id="wallet (4)">
<g id="_x30_7_Wallet">
<g id="Group">
<path id="Vector" d="M28.7516 18.4737H28.4812V15.8218C28.4812 14.2168 27.1754 12.9111 25.5705 12.9111H25.3801L23.8446 9.83638C23.494 9.13375 22.6768 8.81651 21.9435 9.09872L12.0365 12.9111H11.0397C9.43473 12.9111 8.12891 14.2168 8.12891 15.8218V27.0351C8.12891 28.64 9.43473 29.9458 11.0397 29.9458H25.5705C27.1754 29.9458 28.4812 28.64 28.4812 27.0351V24.383H28.7516C29.4859 24.383 30.0832 23.7857 30.0832 23.0514V19.8051C30.0831 19.071 29.4859 18.4737 28.7516 18.4737ZM22.1898 9.73886C22.5912 9.58395 23.0385 9.75815 23.2308 10.1429L24.6133 12.9111H13.9465L22.1898 9.73886ZM27.7952 27.0351C27.7952 28.2618 26.7972 29.2597 25.5705 29.2597H11.0397C9.81289 29.2597 8.81498 28.2618 8.81498 27.0351V15.8218C8.81498 14.5952 9.81295 13.5972 11.0397 13.5972H25.5705C26.7972 13.5972 27.7952 14.5952 27.7952 15.8218V18.4737H23.9988C22.3801 18.4737 21.0462 19.7815 21.0462 21.4264C21.0462 23.0567 22.3708 24.3831 23.9988 24.3831H27.7952V27.0351ZM29.3971 23.0515C29.3971 23.4074 29.1075 23.697 28.7516 23.697H23.9988C22.7489 23.697 21.7323 22.6784 21.7323 21.4264C21.7323 20.1612 22.7586 19.1598 23.9988 19.1598H28.7516C29.1075 19.1598 29.3971 19.4492 29.3971 19.8052V23.0515Z" fill="white"/>
<path id="Vector_2" d="M24.3402 19.9688C23.5366 19.9688 22.8828 20.6243 22.8828 21.4302C22.8828 22.2337 23.5366 22.8874 24.3402 22.8874C25.1437 22.8874 25.7975 22.2337 25.7975 21.4302C25.7975 20.6243 25.1437 19.9688 24.3402 19.9688ZM24.3402 22.2014C23.915 22.2014 23.5689 21.8555 23.5689 21.4302C23.5689 21.0028 23.915 20.6548 24.3402 20.6548C24.7655 20.6548 25.1114 21.0027 25.1114 21.4302C25.1114 21.8555 24.7655 22.2014 24.3402 22.2014Z" fill="white"/>
</g>
</g>
</g>
</svg>
